<svg width="1529" height="394" viewBox="-100 0 1529 394" fill="none" xmlns="http://www.w3.org/2000/svg">
<path d="M116.646 393.04H92.9307L95.458 250.397H94.6704L66.8699 386.466H50.1395L21.7591 250.397H20.9715L23.6979 393.04H0V141.374H21.387L58.9072 316.104L92.922 141.374H116.637V393.04H116.646Z" fill="white"/>
<path d="M220.067 155.245C228.886 164.486 235.888 177.738 241.073 194.982C246.257 212.226 248.845 232.482 248.845 255.698C248.845 278.914 246.249 299.161 241.073 316.414C235.888 333.658 228.886 346.909 220.067 356.151C211.247 365.393 201.397 370.022 190.518 370.022C179.638 370.022 169.771 365.401 160.96 356.151C152.141 346.909 145.139 333.658 139.972 316.414C134.787 299.17 132.199 278.931 132.199 255.698C132.199 232.465 134.787 212.235 139.972 194.982C145.156 177.738 152.158 164.486 160.96 155.245C169.78 146.003 179.63 141.374 190.518 141.374C201.406 141.374 211.247 145.994 220.067 155.245ZM177.587 182.651C173.502 185.809 170.031 190.43 167.192 196.514C164.206 203.053 161.774 211.675 159.904 222.388C158.018 233.093 157.083 244.202 157.083 255.698C157.083 267.194 157.992 278.139 159.809 288.508C161.627 298.886 164.085 307.577 167.192 314.547C170.04 320.63 173.519 325.251 177.587 328.409C181.672 331.567 185.974 333.142 190.518 333.142C195.062 333.142 199.199 331.567 203.353 328.409C207.491 325.251 211.005 320.63 213.852 314.547C216.959 307.559 219.426 298.877 221.235 288.508C223.053 278.139 223.961 267.203 223.961 255.698C223.961 244.193 223.009 233.145 221.14 222.552C219.253 211.951 216.838 203.268 213.852 196.505C211.005 190.421 207.525 185.801 203.457 182.643C199.372 179.485 195.07 177.91 190.526 177.91C185.983 177.91 181.681 179.493 177.596 182.643V182.66L177.587 182.651Z" fill="white"/>
<path d="M346.251 154.143C355.979 162.654 363.648 174.107 369.291 188.494C374.934 202.89 377.747 218.602 377.747 235.606C377.747 252.609 374.925 268.614 369.291 283.001C363.648 297.397 356.005 308.859 346.346 317.352C336.687 325.862 326.101 330.113 314.555 330.113H264.39V141.365H314.555C325.963 141.365 336.522 145.616 346.251 154.126V154.143ZM289.092 296.786H313.586C317.221 296.786 320.614 296.253 323.79 295.186C326.967 294.119 329.979 292.441 332.826 290.109C335.674 287.785 338.331 284.791 340.789 281.125C344.286 275.713 347.047 268.846 349.055 260.542C351.063 252.23 352.067 244.021 352.067 235.898C352.067 227.775 351.089 219.953 349.15 212.415C347.211 204.878 344.416 198.398 340.789 192.994C336.894 187.195 332.662 182.694 328.049 179.51C323.444 176.327 318.623 174.726 313.569 174.726H289.074V296.795L289.092 296.777V296.786Z" fill="white"/>
<path d="M422.356 294.205C414.514 290.582 409.096 286.684 406.127 282.485C402.371 277.331 399.653 271.97 397.957 266.42C396.278 260.869 395.066 252.686 394.356 241.896C393.638 231.105 393.283 214.997 393.283 193.571V141.382H418.547V218.938C418.547 231.174 419.231 240.596 420.581 247.205C421.94 253.813 423.714 258.882 425.93 262.427C427.748 265.327 430.569 267.831 434.386 269.922C438.203 272.013 442.773 273.062 448.096 273.062C453.419 273.062 457.755 272.021 461.512 269.922C465.268 267.831 468.323 265.327 470.643 262.427C473.11 259.2 474.944 254.373 476.182 247.928C477.403 241.483 478.026 231.819 478.026 218.938L477.636 141.382H502.909V193.571C502.909 214.997 502.555 231.105 501.836 241.896C501.118 252.686 499.923 260.861 498.244 266.42C496.556 271.97 493.83 277.331 490.074 282.485C487.088 286.667 481.687 290.582 473.845 294.205C466.004 297.827 457.418 299.652 448.079 299.652C438.74 299.652 430.154 297.836 422.312 294.205H422.338H422.356Z" fill="white"/>
<path d="M588.18 257.892C591.746 256.197 594.853 253.615 597.511 250.139C600.168 246.663 602.081 242.3 603.249 237.068H630.47C628.271 246.843 624.567 255.285 619.382 262.367C614.198 269.448 607.914 274.801 600.523 278.423C593.14 282.029 585.229 283.836 576.807 283.836C566.049 283.836 556.199 280.609 547.259 274.164C538.318 267.719 531.272 259.037 526.157 248.126C521.042 237.215 518.48 225.374 518.48 212.613C518.48 199.852 521.042 188.029 526.157 177.101C531.272 166.19 538.3 157.508 547.259 151.054C556.199 144.601 566.049 141.382 576.807 141.382C585.489 141.382 593.685 143.542 601.405 147.862C609.109 152.181 615.626 158.351 620.94 166.362C626.254 174.373 629.812 183.624 631.629 194.113H604.807C603.249 185.043 599.839 177.884 594.602 172.644C589.349 167.403 583.42 164.779 576.816 164.779C570.723 164.779 565.149 166.827 560.094 170.949C555.048 175.062 551.058 180.724 548.141 187.96C545.225 195.197 543.771 203.415 543.771 212.631C543.771 221.846 545.225 230.064 548.141 237.283C551.058 244.52 555.048 250.182 560.094 254.295C565.14 258.408 570.723 260.465 576.816 260.465C580.832 260.465 584.614 259.613 588.189 257.909V257.892H588.18Z" fill="white"/>
<path d="M735.076 149.299C743.896 154.582 750.898 162.154 756.082 172.016C761.267 181.877 763.855 193.442 763.855 206.71C763.855 219.979 761.258 231.544 756.082 241.405C750.898 251.266 743.896 258.83 735.076 264.122C726.256 269.405 716.407 272.056 705.527 272.056C694.648 272.056 684.781 269.414 675.97 264.122C667.15 258.847 660.148 251.266 654.981 241.405C649.805 231.544 647.209 219.979 647.209 206.71C647.209 193.442 649.797 181.877 654.981 172.016C660.165 162.154 667.168 154.591 675.97 149.299C684.789 144.015 694.639 141.382 705.527 141.382C716.416 141.382 726.256 144.024 735.076 149.299ZM692.596 164.96C688.511 166.767 685.04 169.408 682.202 172.893C679.216 176.628 676.783 181.567 674.914 187.676C673.027 193.803 672.092 200.153 672.092 206.71C672.092 213.267 673.001 219.54 674.819 225.46C676.636 231.381 679.094 236.346 682.202 240.338C685.049 243.815 688.529 246.465 692.596 248.272C696.682 250.079 700.983 250.982 705.527 250.982C710.071 250.982 714.208 250.079 718.363 248.272C722.5 246.465 726.014 243.823 728.862 240.338C731.969 236.346 734.436 231.381 736.245 225.46C738.062 219.54 738.971 213.293 738.971 206.71C738.971 200.128 738.019 193.829 736.149 187.771C734.263 181.713 731.848 176.748 728.862 172.893C726.014 169.417 722.535 166.784 718.467 164.96C714.382 163.153 710.08 162.249 705.536 162.249C700.992 162.249 696.69 163.153 692.605 164.96H692.596Z" fill="white"/>
<path d="M804.3 113.786L849.593 225.168H851.341V113.786H878.562V271.083H845.508L808.178 181.937H806.429L806.62 271.083H779.399V113.786H804.3Z" fill="white"/>
<path d="M935.522 162.352V155.58C935.522 142.217 938.854 131.392 945.536 123.088C952.209 114.802 961.383 110.646 973.05 110.646C985.358 110.646 994.758 114.518 1001.23 122.245C1007.71 129.972 1010.96 140.935 1010.96 155.107C1010.96 164.28 1008.88 173.272 1004.75 182.049C1000.59 190.826 994.178 201.659 985.505 214.541L966.265 242.808V244.503H1013.7V271.075H934.968V243.04L966.273 197.383L968.403 194.233C974.617 185.061 979.066 177.807 981.714 172.489C984.371 167.171 985.704 161.371 985.704 155.09C985.704 148.481 984.77 143.852 982.883 141.193C980.996 138.543 977.742 137.218 973.059 137.218C968.905 137.218 965.771 138.749 963.634 141.813C961.504 144.876 960.431 149.454 960.431 155.58V160.175L935.548 162.352H935.522Z" fill="white"/>
<path d="M1046.94 263.967C1039.82 256.533 1034.43 245.51 1030.81 230.916C1027.18 216.322 1025.36 198.303 1025.36 176.843C1025.36 155.382 1027.18 137.364 1030.81 122.77C1034.44 108.176 1039.82 97.1533 1046.94 89.7187C1054.06 82.2755 1062.88 78.5582 1073.37 78.5582C1083.86 78.5582 1092.45 82.2755 1099.52 89.7187C1106.57 97.1619 1111.9 108.176 1115.46 122.77C1119.03 137.364 1120.81 155.382 1120.81 176.843C1120.81 198.303 1119.02 216.322 1115.46 230.916C1111.9 245.51 1106.57 256.533 1099.52 263.967C1092.45 271.41 1083.74 275.128 1073.37 275.128C1063 275.128 1054.06 271.41 1046.94 263.967ZM1089.51 225.994C1093.14 214.876 1094.96 198.493 1094.96 176.843C1094.96 155.193 1093.14 138.809 1089.51 127.692C1085.88 116.574 1080.5 111.024 1073.38 111.024C1066.26 111.024 1060.61 116.574 1056.86 127.692C1053.1 138.809 1051.22 155.193 1051.22 176.843C1051.22 198.493 1053.09 214.876 1056.86 225.994C1060.61 237.111 1066.13 242.661 1073.38 242.661C1080.63 242.661 1085.89 237.111 1089.51 225.994Z" fill="white"/>
<path d="M1133.08 118.855V109.381C1133.08 90.6566 1136.41 75.5034 1143.09 63.8869C1149.76 52.2789 1158.94 46.462 1170.6 46.462C1182.91 46.462 1192.31 51.8745 1198.79 62.6908C1205.27 73.5071 1208.51 88.8496 1208.51 108.692C1208.51 121.548 1206.44 134.111 1202.3 146.408C1198.15 158.704 1191.73 173.866 1183.06 191.901L1163.82 231.475V233.842H1211.26V271.049H1132.52V231.811L1163.83 167.877L1165.96 163.488C1172.17 150.632 1176.62 140.487 1179.27 133.044C1181.93 125.601 1183.26 117.478 1183.26 108.692C1183.26 99.4508 1182.32 92.9627 1180.44 89.2454C1178.55 85.5281 1175.3 83.6695 1170.61 83.6695C1166.46 83.6695 1163.33 85.8207 1161.19 90.0973C1159.06 94.3739 1157.99 100.802 1157.99 109.381V115.809L1133.1 118.855L1133.08 118.838V118.855Z" fill="white"/>
<path d="M1325.2 26H1259.74L1258.05 123.153C1259.79 119.222 1262.64 116.079 1266.57 113.74C1271.21 110.868 1276.46 109.44 1282.28 109.44C1292.08 109.44 1300.42 112.275 1307.23 117.982C1314.15 123.582 1319.3 132.041 1322.75 143.255L1323.08 144.305C1326.42 155.234 1328.08 168.648 1328.08 184.521C1328.08 203.77 1326.42 220.382 1323.09 234.344L1323.09 234.345C1319.87 248.333 1314.47 259.34 1306.84 267.292C1299.16 275.305 1288.96 279.28 1276.36 279.28C1264 279.28 1254.13 275.751 1246.86 268.593L1246.85 268.587L1246.85 268.582C1239.76 261.385 1234.78 251.715 1231.87 239.635L1231.87 239.626C1229.07 227.592 1227.52 213.226 1227.2 196.539L1227.18 195.521H1254.3L1254.32 196.498C1254.75 215.768 1256.98 230.013 1260.96 239.327C1265.05 248.56 1270.23 252.8 1276.36 252.8C1281.22 252.8 1285.48 250.54 1289.17 245.823L1289.17 245.821C1292.99 240.978 1296.04 233.572 1298.26 223.504C1300.48 213.465 1301.6 201.009 1301.6 186.12C1301.6 169.425 1299.31 157.322 1294.86 149.662L1294.85 149.648C1290.48 141.849 1285.05 137.986 1278.57 137.68C1275.24 137.684 1271.83 138.545 1268.33 140.295L1268.32 140.3C1264.93 141.94 1262.12 144.188 1259.87 147.046C1257.75 149.887 1256.72 152.773 1256.72 155.72V156.72H1229.09L1233.47 0H1325.2V26Z" fill="white"/>
</svg>
